<?xml version="1.0" encoding="utf-8"?>
<!-- Generator: Adobe Illustrator 17.0.0, SVG Export Plug-In . SVG Version: 6.00 Build 0)  -->
<!DOCTYPE svg PUBLIC "-//W3C//DTD SVG 1.1//EN" "http://www.w3.org/Graphics/SVG/1.1/DTD/svg11.dtd">
<svg version="1.1" id="Layer_1" xmlns="http://www.w3.org/2000/svg" xmlns:xlink="http://www.w3.org/1999/xlink" x="0px" y="0px"
	 width="32px" height="32px" viewBox="0 0 32 32" enable-background="new 0 0 32 32" xml:space="preserve">
<g id="XMLID_200_">
	<path id="XMLID_87_" fill="#D8D9DD" d="M3.599,12.859L16.27,12.81v14.459c0,0-1.198,0.054-4.482,2.25
		c-2.741,1.833-2.909,2.112-4.768,2.21s-5.372-3.016-6.58-5.538s1.86-3.382,2.479-6.323S3.599,12.859,3.599,12.859z"/>
	<path id="XMLID_86_" fill="#B0AEB4" d="M28.551,12.859L15.88,12.81v14.459c0,0,1.183,0.077,4.482,2.25
		c2.985,1.967,2.909,2.112,4.768,2.21s5.583-4.085,6.58-5.538c0.997-1.454-1.86-3.382-2.479-6.323S28.551,12.859,28.551,12.859z"/>
	<path id="XMLID_188_" fill="#20140F" d="M27.535,19.236c-0.072-0.221-1.109-1.066-1.395-1.434
		c-0.057-0.074-0.104-0.171-0.143-0.279c-0.186-0.516-0.068-1.089,0.229-1.546c0.297-0.458,0.641-1.227,0.594-2.292
		c-0.036-0.809-0.966-0.735-0.966-0.735l-9.972-0.073v0l-0.002,0l-0.002,0v0L5.904,12.95c0,0-0.93-0.074-0.966,0.735
		c-0.047,1.065,0.297,1.834,0.594,2.292c0.297,0.458,0.414,1.03,0.229,1.546c-0.039,0.108-0.086,0.205-0.143,0.279
		c-0.286,0.368-1.323,1.213-1.395,1.434c-0.072,0.221,0,1.691,0,2.095s1.967,3.272,2.575,3.786c0.608,0.515,1.073,0.845,1.717,0.809
		c0.511-0.029,1.226-0.523,1.498-0.724c0.072-0.053,0.134-0.109,0.195-0.173c0.574-0.604,3.902-4.087,4.457-4.322
		c0.437-0.185,1.17-0.186,1.213-0.189c0.043,0.003,0.776,0.004,1.213,0.189c0.555,0.235,3.883,3.719,4.457,4.322
		c0.062,0.065,0.124,0.12,0.195,0.173c0.272,0.201,0.987,0.695,1.498,0.724c0.644,0.037,1.109-0.294,1.717-0.809
		c0.608-0.515,2.575-3.382,2.575-3.786S27.606,19.457,27.535,19.236z M25.103,21.478c-0.143,0.368-1.681,2.757-2.468,2.867
		c-0.705,0.099-2.012-1.071-2.277-1.316c-0.032-0.029-0.059-0.057-0.088-0.089c-0.315-0.345-2.378-2.582-3.071-2.786
		c-0.606-0.178-2.035-0.178-2.641,0c-0.693,0.203-2.755,2.441-3.071,2.786c-0.029,0.032-0.057,0.06-0.088,0.089
		c-0.265,0.245-1.572,1.414-2.277,1.316c-0.787-0.11-2.324-2.5-2.468-2.867c-0.125-0.322,0.024-1.967,0.063-2.372
		c0.006-0.061,0.014-0.118,0.026-0.178l0.112-0.555c0.059-0.293,0.19-0.566,0.383-0.789c0.239-0.275,0.557-0.597,0.703-0.554
		c0.25,0.074,2.324-0.294,3.218-0.698c0.894-0.404,2.003-1.838,2.611-2.5c0.597-0.65,3.618-0.65,4.215,0
		c0.608,0.662,1.717,2.095,2.611,2.5c0.894,0.404,2.968,0.772,3.218,0.698c0.147-0.043,0.465,0.279,0.703,0.554
		c0.194,0.223,0.324,0.496,0.383,0.789l0.112,0.555c0.012,0.06,0.021,0.117,0.026,0.178C25.08,19.512,25.228,21.157,25.103,21.478z"
		/>
	<g id="XMLID_88_">
		<path id="XMLID_185_" fill="#B0AEB4" d="M28.58,12.598C28.187,5.815,26.387,0.438,16.056,0.438c-0.1,0-0.193,0.004-0.292,0.005
			v12.156H28.58z"/>
		<path id="XMLID_191_" fill="#D8D9DD" d="M3.533,12.598h12.232V0.442C5.697,0.545,3.922,5.88,3.533,12.598z"/>
	</g>
	<path id="XMLID_84_" fill="#9A999E" d="M23.799,27.763c0.105,0.684-0.269,1.313-0.837,1.406c-0.567,0.092-1.113-0.387-1.218-1.072
		c-0.105-0.684,0.269-1.313,0.837-1.406C23.148,26.599,23.693,27.078,23.799,27.763z"/>
	<rect id="XMLID_89_" x="3.496" y="12.249" fill="#20140F" width="25.091" height="0.794"/>
	<polygon id="XMLID_90_" fill="#20140F" points="27.082,25.291 26.883,25.552 26.114,24.932 26.313,24.671 	"/>
	<polygon id="XMLID_192_" fill="#20140F" points="27.421,24.875 27.223,25.135 26.454,24.515 26.652,24.255 	"/>
	<polygon id="XMLID_193_" fill="#20140F" points="27.78,24.424 27.581,24.684 26.812,24.064 27.011,23.803 	"/>
	<polygon id="XMLID_194_" fill="#20140F" points="28.129,24.005 27.93,24.266 27.161,23.645 27.36,23.385 	"/>
	<polygon id="XMLID_195_" fill="#20140F" points="28.488,23.564 28.289,23.825 27.52,23.204 27.719,22.944 	"/>
	<polygon id="XMLID_199_" fill="#20140F" points="4.436,25.291 4.635,25.552 5.404,24.932 5.206,24.671 	"/>
	<polygon id="XMLID_198_" fill="#20140F" points="4.097,24.875 4.296,25.135 5.065,24.515 4.866,24.255 	"/>
	<polygon id="XMLID_197_" fill="#20140F" points="3.739,24.424 3.937,24.684 4.707,24.064 4.508,23.803 	"/>
	<polygon id="XMLID_196_" fill="#20140F" points="3.389,24.005 3.588,24.266 4.357,23.645 4.159,23.385 	"/>
	<polygon id="XMLID_190_" fill="#20140F" points="3.031,23.564 3.23,23.825 3.999,23.204 3.8,22.944 	"/>
</g>
</svg>
